<svg aria-hidden="true" style="position:absolute;width:0;height:0;overflow:hidden" xmlns="http://www.w3.org/2000/svg">
  <defs>
    <symbol id="icon-burger" viewBox="0 0 46 32">
      <path stroke-width="2.286" d="M0 2.286h45.714M0 16h45.714M0 29.714h45.714"/>
    </symbol>
    <symbol id="icon-close" viewBox="0 0 32 32">
      <path stroke-width="2" d="m2.518 2 26.963 28M2 29.481 30 2.518"/>
    </symbol>
    <symbol id="icon-logo" viewBox="0 0 127 32">
       <!-- Фон -->
  <rect width="100%" height="100%" fill="#2d2926" />
  <!-- Іконка чашки -->
  <path d="M19 15v-6c0.829 0 1.577 0.335 2.121 0.879s0.879 1.292 0.879 2.121-0.335 1.577-0.879 2.121-1.292 0.879-2.121 0.879zM2 7c-0.552 0-1 0.448-1 1v9c0 1.38 0.561 2.632 1.464 3.536s2.156 1.464 3.536 1.464h8c1.38 0 2.632-0.561 3.536-1.464s1.464-2.156 1.464-3.536c1.38 0 2.632-0.561 3.536-1.464s1.464-2.156 1.464-3.536-0.561-2.632-1.464-3.536-2.156-1.464-3.536-1.464h-1zM3 9h14v8c0 0.829-0.335 1.577-0.879 2.121s-1.292 0.879-2.121 0.879h-8c-0.829 0-1.577-0.335-2.121-0.879s-0.879-1.292-0.879-2.121zM5 1v3c0 0.552 0.448 1 1 1s1-0.448 1-1v-3c0-0.552-0.448-1-1-1s-1 0.448-1 1zM9 1v3c0 0.552 0.448 1 1 1s1-0.448 1-1v-3c0-0.552-0.448-1-1-1s-1 0.448-1 1zM13 1v3c0 0.552 0.448 1 1 1s1-0.448 1-1v-3c0-0.552-0.448-1-1-1s-1 0.448-1 1z" transform="translate(10, 1)" fill="#8E6D3B"></path>
  <!-- Текст "Coffee Shop" -->
  <text x="100" y="25" font-family="Helvetica, Arial, sans-serif" font-size="14" fill="#8E6D3B" font-weight="bold" transform="translate(-55, -6)">Coffee Shop</text>
    </symbol>
    <symbol id="facebook" width="34" height="34" fill="none" xmlns="http://www.w3.org/2000/svg">
      <path d="M17 34c9.389 0 17-7.611 17-17S26.389 0 17 0 0 7.611 0 17s7.611 17 17 17Z"/>
      <path d="M21.724 16.98H18.95V27.2h-4.202V16.98H12.75V13.39h1.998v-2.324c0-1.662.785-4.265 4.24-4.265l3.112.013V10.3h-2.258c-.37 0-.891.187-.891.98v2.113h3.14l-.367 3.588Z" fill="#fff"/>
    </symbol>
    <symbol id="telegram" width="34" height="34" fill="none" xmlns="http://www.w3.org/2000/svg">
      <circle cx="17" cy="17" r="17"/>
      <path d="m13.671 19.524-.337 4.43c.483 0 .692-.194.943-.426l2.263-2.02 4.69 3.207c.861.447 1.467.211 1.7-.739l3.078-13.464v-.001c.274-1.187-.46-1.651-1.297-1.36L6.614 15.617c-1.235.448-1.217 1.09-.21 1.382l4.627 1.343 10.746-6.276c.506-.313.966-.14.588.173l-8.693 7.285Z" fill="#fff"/>
    </symbol>
    <symbol id="github" width="34" height="34" fill="none" xmlns="http://www.w3.org/2000/svg">
      <circle cx="17" cy="17" r="17"/>
      <path d="M17 7C11.507 7 7 11.507 7 17c0 4.687 3.289 8.945 7.656 10v-3.308c-.433.094-.83.097-1.271-.033-.591-.174-1.071-.568-1.428-1.168-.227-.383-.63-.8-1.05-.769l-.103-1.167c.909-.078 1.694.554 2.16 1.337.208.349.447.553.753.643.295.088.613.046.983-.085.093-.741.433-1.018.69-1.41-2.605-.388-3.643-1.77-4.055-2.86-.546-1.449-.253-3.258.712-4.402.019-.022.053-.08.04-.12-.443-1.338.096-2.444.116-2.561.511.15.594-.152 2.22.835l.28.169c.118.07.08.03.198.02A8.484 8.484 0 0 1 17 11.828c.71.009 1.42.11 2.127.302l.091.01c-.008-.002.025-.006.08-.039 2.03-1.23 1.957-.828 2.502-1.005.02.118.551 1.242.113 2.562-.059.182 1.76 1.848.752 4.522-.412 1.09-1.45 2.473-4.054 2.861.334.51.735.78.733 1.83V27C23.71 25.945 27 21.687 27 17c0-5.493-4.507-10-10-10Z" fill="#fff"/>
    </symbol>
    <symbol id="arrow" width="7" height="10" xmlns="http://www.w3.org/2000/svg">
      <path d="M1.387 0a1 1 0 0 0-.698.316A1 1 0 0 0 .74 1.73L4.238 5l-3.5 3.27a1 1 0 0 0-.05 1.414 1 1 0 0 0 1.415.046l4.28-4a1 1 0 0 0 0-1.46l-4.28-4A1 1 0 0 0 1.387 0Z"/>
    </symbol>
    <symbol id="logo" version="1.0" xmlns="http://www.w3.org/2000/svg" width="113" height="25" viewBox="0 0 423 93">
      <path d="M22.2 15c-6.9 2.8-4.6 13.2 6.7 30.5l2 3.1-3.3 4.7c-4.1 5.8-8.7 15.8-9.3 20.6-.7 5.3 2 8.4 7.5 8.3 4.8-.1 14.2-4 21-8.9 2.6-1.8 5-3.3 5.4-3.3.4 0 3.3 1.8 6.4 4 10.1 7.1 22.2 10.1 25.8 6.4 3.7-3.6 1.3-13.6-5.9-24.3C76 52.4 74 49 74 48.6c0-.5 2-3.8 4.4-7.5 5.8-8.8 8-15 7.3-20.2-.7-5.4-1.9-6.4-7.1-6.3-4.8.1-13 3.6-21.1 8.9l-5.4 3.7-3.3-2.5c-4.8-3.6-16.7-9.3-20.8-10-1.9-.3-4.5-.2-5.8.3zm18.1 10.2 7.8 5.1-6.7 6.8c-3.7 3.7-7.1 6.6-7.6 6.3-.4-.3-2.6-3.6-4.8-7.3-4.4-7.4-6.5-13.4-5.6-15.8 1.1-2.8 8.4-.7 16.9 4.9zm40.5-3.3c.6 3.9-4.5 14.8-10.3 21.9-.4.4-13.5-12.4-13.5-13.1 0-1.2 9.6-7.1 15-9.4 6.5-2.7 8.4-2.6 8.8.6zM59.6 40.7c3.5 3.6 6.4 7.1 6.4 7.7 0 .7-2.9 4-6.5 7.6-6.3 6.2-6.5 6.3-9.1 5C47.6 59.5 38 49.4 38 48c0-1.3 12.8-14 14.1-14 .6 0 4 3 7.5 6.7zM45.8 68.2c-7.7 5.9-20.6 10.5-22.2 7.9-1.1-1.7 2.4-10.8 6.5-17.1l4-6.3 7 6.9 6.9 6.9-2.2 1.7zm28-10.5C78.1 64.4 81 71 81 74.2c0 2.4-.4 2.8-3 2.8-3.2 0-14.8-5.4-19-8.8l-2.5-2.1 6.5-6.4c3.6-3.6 6.8-6.6 7.1-6.6.4-.1 2.1 2 3.7 4.6zM203.8 25.1c-1.5.8-1.8 2.5-1.8 9.3 0 10.1.6 10.8 8.7 10.4 4.6-.2 5.9-.7 6.1-2.1.3-1.4-.5-1.7-5.2-1.7H206v-6.4c0-6 .2-6.4 2.5-7 1.4-.4 3.6-.4 4.9 0 2.7.6 4.6-1.4 2.5-2.7-1.9-1.2-10-1.1-12.1.2zM229.5 24.9l-5 .6V35c0 9.1.1 9.5 2.3 9.8 1.9.3 2.2-.1 2.2-3.2 0-4.9 3.3-5 6.1-.1 1.2 2 2.9 3.5 4 3.5 2.3 0 2.3-.3.4-3.9-1.3-2.6-1.3-3 0-4.1 2.3-1.9 2-10.7-.4-12-1.1-.5-2.6-.9-3.3-.8-.7 0-3.5.4-6.3.7zm7.3 6.2c-.3 2.8-.7 3.2-4 3.5-3.7.3-3.8.2-3.8-3.1 0-3.4.1-3.5 4.1-3.5 3.9 0 4 .1 3.7 3.1zM253.9 26.7c-1.3 3.4-5.9 16.5-5.9 17 0 1.1 4.2 0 4.6-1.2.9-2.4 8.1-2 9.4.5.9 1.6 5 3 5 1.7 0-.2-1.6-4.7-3.5-10.1-1.9-5.4-3.5-10-3.5-10.2 0-.2-1.1-.4-2.5-.4-1.8 0-2.8.8-3.6 2.7zm5.1 6.9c1.2 3.1.6 4.4-2.1 4.4-2 0-2.3-1-1.3-4.8.8-2.9 2.2-2.8 3.4.4zM273 25.4c0 1.7 2.2 2.6 6.1 2.6 1.6 0 2.9.3 2.9.6s-2 3.1-4.5 6.3c-2.5 3.1-4.5 6.7-4.5 7.9 0 2.1.5 2.2 7.5 2.2 6.8 0 7.5-.2 7.5-2 0-1.7-.7-2-4.5-2-2.5 0-4.5-.3-4.5-.7 0-.4 2-3.3 4.5-6.4 2.5-3.2 4.5-6.7 4.5-7.8 0-1.9-.6-2.1-7.5-2.1-5.7 0-7.5.3-7.5 1.4zM306.1 29c-1.2 2.7-2.4 5-2.6 5-.3 0-1.4-1.8-2.5-3.9-2.2-4.5-3.1-5.3-4.8-4.2-.8.5-.4 2.2 1.5 6.1 1.4 3 2.9 7.1 3.2 9 .9 5.1 3.4 5 4.7-.2.6-2.4 2.3-7.1 3.7-10.6 2.3-5.7 2.4-6.2.7-6.2-1.2 0-2.5 1.6-3.9 5zM397 57c0 .6-1.1 1.5-2.5 2-3.7 1.4-5.3 5.5-3.4 8.8 1.1 2.1 2.4 2.8 5.9 3.2 3.7.4 4.5.9 4.5 2.5 0 1.7-.8 2-5.2 2.3-6 .3-7.5 2.8-2.3 3.9 1.7.3 3.3.9 3.5 1.4.9 1.4 7.5-3.2 8.1-5.6 1.3-5.1-2-8.5-8.2-8.5-1.7 0-2.4-.5-2.4-2 0-2 .3-2.1 6.5-2.4 2.7-.1 3.3-3.6.7-3.6-1.1 0-2.2-.7-2.6-1.5-.6-1.7-2.6-2-2.6-.5zM110.2 60.2c-.8.8-1.2 4.6-1.2 10.6v9.4l6.6-.4c8.6-.5 10.4-2.4 10.4-10.9 0-7.9-1.9-9.9-9.3-9.9-2.9 0-5.8.5-6.5 1.2zm10.2 3.4c1.6 1.5 2.2 7.8 1 10.8-.4 1.1-1.9 1.6-4.5 1.6H113v-6.3c0-3.5.3-6.7.7-7 1.2-1.3 5.1-.7 6.7.9zM134 68.9v9.9l3.1.6c1.7.3 5.1.6 7.5.6 3.7 0 4.4-.3 4.4-2 0-1.8-.7-2-5.5-2-5.2 0-5.5-.1-5.5-2.5 0-2.3.4-2.5 4-2.5 3.3 0 4-.3 4-2s-.7-2-4.1-2c-3.6 0-4-.2-3.7-2.3.3-1.9 1-2.2 5.6-2.5 3.7-.2 5.2-.7 5.2-1.8s-1.6-1.4-7.5-1.4H134v9.9zM155.6 61.2c.3 1.3 2 6 3.6 10.5 2.6 7.1 3.3 8.3 5.3 8.3 1.9 0 2.7-1.2 5.3-8.8 1.7-4.8 3.4-9.5 3.8-10.5.6-1.5.3-1.8-1.6-1.5-1.9.2-2.8 1.6-4.5 6.7-2 6.1-4.5 9.2-4.5 5.7 0-.8-.9-4-2.1-7.1-1.5-4.1-2.5-5.5-4-5.5-1.6 0-1.9.4-1.3 2.2zM181 69.6v10.7l6.4-.5c3.5-.3 6.9-.9 7.5-1.2 2.2-1.4-.1-2.6-5-2.6-4.5 0-4.9-.2-4.9-2.4 0-2.2.5-2.5 4.3-2.8 2.9-.2 4.2-.8 4.2-1.8 0-1.1-1.3-1.6-4.3-1.8-3.8-.3-4.3-.6-4-2.5.3-1.9.9-2.2 5.3-2.3 3.8-.1 5.1-.5 5.3-1.7.3-1.5-.7-1.7-7.2-1.7H181v10.6zM204.2 69.2l.3 10.3 6.8.3c6.2.3 6.7.1 6.7-1.8 0-1.7-.6-2-5-2h-5v-8.5c0-7.9-.1-8.5-2-8.5-2 0-2.1.5-1.8 10.2zM226 60.9c-.5 1.1-1 5.1-1 9 0 8.7 1.1 10.1 8.4 10.1 7.9 0 9.1-1.3 9.1-10.3 0-9.7-.9-10.7-9.1-10.7-5.2 0-6.5.3-7.4 1.9zm12.1 6c.3 2.4.4 5.4.1 6.7-.4 2.1-1 2.4-4.8 2.4H229v-6.3c0-3.5.3-6.7.7-7.1.4-.4 2.3-.6 4.3-.4 3.3.3 3.5.5 4.1 4.7zM251 69.6c0 9.5.2 10.5 1.8 10.2 1-.2 1.8-1.4 2-3.1.3-2.3.8-2.7 3.7-2.7 1.9 0 4.5-.4 5.9-1 2.3-.9 2.6-1.5 2.6-6.3 0-2.9-.5-5.8-1.2-6.5-.7-.7-4-1.2-8-1.2H251v10.6zm10.4-7c1 .4 1.6 1.8 1.6 4 0 3.3-.1 3.4-4 3.4s-4-.1-4-3.3c0-1.9.3-3.7.7-4 .8-.9 3.6-.9 5.7-.1zM275.7 59.7c-.9.8-.9 11.5-.1 16.5l.7 3.8h6.8c6.2 0 6.9-.2 6.9-2 0-1.7-.7-2-5-2-4.7 0-5-.2-5-2.5s.4-2.5 4-2.5c3.3 0 4-.3 4-2s-.7-2-4.1-2c-3.6 0-4-.2-3.7-2.3.3-1.9 1-2.2 5.1-2.5 3.3-.2 4.7-.7 4.7-1.8s-1.5-1.4-6.8-1.4c-3.8 0-7.2.3-7.5.7zM298 69.5c0 9.7.1 10.5 1.9 10.5 1.5 0 2.1-.8 2.3-3.3.2-2.4.8-3.3 2.5-3.5 1.8-.3 2.7.5 4 3.2 1 2.2 2.4 3.6 3.5 3.6 2 0 2.3-1.2.8-4.1-.8-1.4-.7-2.5.5-4.1 2.1-3.1 1.9-9.1-.3-11.1-1.3-1.2-3.7-1.7-8.5-1.7H298v10.5zm11.1-6.5c2.2 1.2 2.5 4.3.7 5.6-.7.5-2.6.9-4.3.9-2.4 0-3.1-.5-3.3-2.3-.7-4.9 2.2-6.6 6.9-4.2zM324.2 59.8c-2 1.3-2.6 7.4-.9 9.6 1 1.4 2.6 1.9 6.1 1.9 4.2 0 4.6.3 4.6 2.4s-.4 2.3-5.5 2.3c-4.3 0-5.5.3-5.5 1.6s1.2 1.5 7.1 1.1c7.4-.4 8.9-1.3 8.9-5.3 0-3.6-2.3-5.6-7.3-6.1-2.6-.3-5-1-5.3-1.5-1.2-1.9 1.9-3.8 6.2-3.8 3.2 0 4.4-.4 4.4-1.5 0-1.2-1.3-1.5-5.7-1.5-3.2 0-6.4.4-7.1.8zM346 60.5c0 1 1 1.5 3.3 1.5 1.8 0 4.2.7 5.3 1.5 1.8 1.4 1.7 1.7-3.4 6.2-3.9 3.6-5.2 5.5-5.2 7.5 0 2.8 0 2.8 7 2.8 6.3 0 7-.2 7-2 0-1.7-.7-2-4.7-2h-4.8l4.8-4.4c5-4.7 5.7-6.8 3.1-10.4-1.2-1.8-2.5-2.2-7-2.2-4.1 0-5.4.4-5.4 1.5zM378 62.2c-1.1 1.8-2 3.6-2 4 0 .5-.9.8-1.9.8-1.5 0-2.1-.8-2.3-3.2-.2-2.2-.9-3.4-2-3.6-1.6-.3-1.8.7-1.8 9.8 0 9.1.2 10.1 1.8 9.8 1.2-.2 1.8-1.5 2-4.6.4-5.6 2.7-5.4 6 .6 1.5 2.7 3 4.2 4.3 4.2 1.8 0 1.8-.3-.7-5.2l-2.6-5.2 2.6-5.3c2.5-5.1 2.5-5.3.6-5.3-1.2 0-2.8 1.3-4 3.2z"/>
    </symbol>
  </defs>
</svg>